<?xml version="1.0" encoding="UTF-8"?>
<svg width="49px" height="39px" viewBox="0 0 49 39" version="1.1" xmlns="http://www.w3.org/2000/svg" xmlns:xlink="http://www.w3.org/1999/xlink">
    <title>Group 4</title>
    <g id="Web" stroke="none" stroke-width="1" fill="none" fill-rule="evenodd">
        <g id="Mobile" transform="translate(-403.000000, -26.000000)" fill="#FFFFFF">
            <g id="Header" transform="translate(-0.001536, -0.000000)">
                <g id="Group-4" transform="translate(403.001536, 26.000000)">
                    <path d="M3.05950928,11 L45.9404907,11 C47.2217909,10.9989708 48.2596562,9.95943799 48.2586278,8.67813778 C48.2583213,8.2963136 48.1637801,7.92046726 47.9836817,7.58378571 C45.2789599,2.52792857 37.451066,0 24.5,0 C11.548934,0 3.72104009,2.52792857 1.0163183,7.58378571 C0.411272088,8.71323269 0.836021437,10.1194264 1.96531281,10.7247629 C2.30183875,10.9051516 2.67768509,10.9996928 3.05950928,11 Z" id="Path"></path>
                    <path d="M2.1383667,39 L46.1677856,39 C46.8084356,38.9993202 47.3272344,38.4794202 47.3265552,37.8387702 C47.3260941,37.403803 47.0823352,37.0056469 46.6953724,36.8070095 C43.0536339,34.9356698 35.3893625,34 23.7025581,34 C11.9053213,34 4.51112102,34.9534363 1.51995738,36.8603089 C0.978365157,37.2025237 0.817322781,37.9191223 1.15997945,38.4604348 C1.37230142,38.7958508 1.74139797,38.9994013 2.1383667,39 Z" id="Path" transform="translate(24.500000, 36.500000) rotate(-180.000000) translate(-24.500000, -36.500000) "></path>
                    <rect id="Rectangle" x="0" y="15" width="49" height="6" rx="2.9"></rect>
                    <rect id="Rectangle" x="0" y="26" width="49" height="2" rx="1"></rect>
                </g>
            </g>
        </g>
    </g>
</svg>