<?xml version="1.0" encoding="UTF-8"?>
<svg width="199px" height="210px" viewBox="0 0 199 210" version="1.1" xmlns="http://www.w3.org/2000/svg" xmlns:xlink="http://www.w3.org/1999/xlink">
    <title>Logo White</title>
    <g id="Logo-White" stroke="none" stroke-width="1" fill="none" fill-rule="evenodd">
        <g id="Logo" transform="translate(-5.897037, 0.000000)" fill="#FFFFFF">
            <ellipse id="Oval" cx="47.1748053" cy="40.229329" rx="40.5673025" ry="40.229329"></ellipse>
            <path d="M131.647082,174.141866 L169.592348,139.862741 C176.306908,133.796919 186.667454,134.322824 192.733276,141.037384 C196.65692,145.38066 197.965595,151.487164 196.166391,157.056894 L191.298478,172.126315 C183.003738,197.80404 159.054722,215.169151 132.070676,215.071603 L99.0523606,214.95224 C72.3675106,214.855774 48.7372732,197.697206 40.3856865,172.352748 L28.51601,136.331987 C26.5868458,130.477576 29.768887,124.167742 35.6232979,122.238578 C39.3418384,121.013232 43.4305421,121.825947 46.3978016,124.380235 L104.581114,174.465819 C112.395957,181.193022 123.995491,181.054187 131.647082,174.141866 Z" id="Polygon" transform="translate(115.448519, 156.697157) rotate(-210.000000) translate(-115.448519, -156.697157) "></path>
        </g>
    </g>
</svg>