<?xml version="1.0" encoding="UTF-8"?>
<svg width="314px" height="125px" viewBox="0 0 314 125" version="1.1" xmlns="http://www.w3.org/2000/svg" xmlns:xlink="http://www.w3.org/1999/xlink">
    <title>Logo</title>
    <g id="Page-1" stroke="none" stroke-width="1" fill="none" fill-rule="evenodd">
        <g id="Desktop-1" transform="translate(-701.000000, -84.000000)">
            <g id="Logo" transform="translate(712.000000, 86.000000)">
                <g id="Group">
                    <rect id="Rectangle" fill="#D8D8D8" x="0" y="0" width="303" height="60.8584368" rx="30.4292184"></rect>
                    <text id="onevinar" font-family="ArialRoundedMTBold, Arial Rounded MT Bold" font-size="50" font-weight="normal" fill="#370667">
                        <tspan x="66.3359375" y="47">onevinar</tspan>
                    </text>
                </g>
                <g id="Group-3" transform="translate(0.500000, 10.164179)" stroke="#E76923" stroke-linecap="round" stroke-width="23">
                    <path d="M34.9423872,42 C35.2857602,41.8706102 35.6238083,41.7465807 35.9565314,41.6279115 C44.6773896,38.5175029 50.5,30.2589421 50.5,21 C50.5,21 50.5,21 50.5,21 C50.5,9.40202025 41.0979797,-1.42108547e-14 29.5,-1.42108547e-14 C17.9020203,-1.42108547e-14 8.5,9.40202025 8.5,21" id="Oval" transform="translate(29.500000, 21.000000) rotate(-90.000000) translate(-29.500000, -21.000000) "></path>
                    <path d="M0,71.5 C1.99524357e-15,87.7924001 13.2075999,101 29.5,101 C29.5,101 29.5,101 29.5,101 C45.7924001,101 59,87.7924001 59,71.5 C59,55.2075999 45.7924001,42 29.5,42" id="Oval"></path>
                </g>
            </g>
        </g>
    </g>
</svg>